<svg id="Capa_1" data-name="Capa 1" xmlns="http://www.w3.org/2000/svg" viewBox="0 0 181.38 81.33"><defs><style>.cls-1{fill:#00d400;}.cls-1,.cls-2{opacity:0.7;}.cls-2{fill:#e7ff7f;}.cls-3,.cls-4{font-size:48px;font-family:Grinched;}.cls-4{fill:#fff;}</style></defs><title>logo</title><path class="cls-1" d="M131,18c-9-9-27-8-33,6-4.11,9.6-13.5,28.5-11.5,48.5.72,7.24,9,21,30,21S148,92,163,82c7.06-4.71,12.48-8.9,10-18C170,53,131,18,131,18Z" transform="translate(-48.25 -12.17)"/><path class="cls-2" d="M142,30.13c-10.5,3.87-16.3,18.6-7.29,28.53,6.17,6.81,17.85,21.25,34.58,27,6.07,2.08,20.1.54,27.8-16.21S207.48,43.78,205,28.14c-1.18-7.36-2.55-13.23-10.74-14.6C184.34,11.89,142,30.13,142,30.13Z" transform="translate(-48.25 -12.17)"/><text class="cls-3" transform="translate(2.18 60)">GameZtore</text><text class="cls-4" transform="translate(0 57.81)">GameZtore</text></svg>